<svg width="589" height="1178" viewBox="0 0 589 1178" fill="none" xmlns="http://www.w3.org/2000/svg">
<path d="M295 883C295 863.696 298.802 844.58 306.19 826.746C313.577 808.911 324.405 792.706 338.055 779.055C351.706 765.405 367.911 754.577 385.746 747.19C403.58 739.802 422.696 736 442 736L442 883H295Z" fill="#63C5EA"/>
<path d="M441 736.5C441 717.13 437.198 697.95 429.81 680.054C422.423 662.159 411.595 645.898 397.945 632.202C384.294 618.505 368.089 607.64 350.254 600.228C332.42 592.815 313.304 589 294 589L294 736.5H441Z" fill="#854BCF"/>
<path d="M295 588.5C295 569.13 298.802 549.95 306.19 532.054C313.577 514.159 324.405 497.898 338.055 484.202C351.706 470.505 367.911 459.64 385.746 452.228C403.58 444.815 422.696 441 442 441L442 588.5H295Z" fill="#EA4B8B"/>
<path d="M441 442C441 422.696 437.198 403.58 429.81 385.746C422.423 367.911 411.595 351.706 397.945 338.055C384.294 324.405 368.089 313.577 350.254 306.19C332.42 298.802 313.304 295 294 295L294 442H441Z" fill="#FCB424"/>
<path d="M295 294C295 274.696 298.802 255.58 306.19 237.746C313.577 219.911 324.405 203.706 338.055 190.055C351.706 176.405 367.911 165.577 385.746 158.19C403.58 150.802 422.696 147 442 147L442 294H295Z" fill="#63C5EA"/>
<path d="M441 147.5C441 128.13 437.198 108.95 429.81 91.0542C422.423 73.1587 411.595 56.8984 397.945 43.2017C384.294 29.5051 368.089 18.6403 350.254 11.2278C332.42 3.8152 313.304 -8.46688e-07 294 0L294 147.5H441Z" fill="#854BCF"/>
<path fill-rule="evenodd" clip-rule="evenodd" d="M136.126 90.8828C143.525 108.745 147.333 127.889 147.333 147.222H73.7218V73.6112H0.110641L0.110657 0C19.4442 0 38.5884 3.80802 56.4502 11.2066C74.312 18.6052 90.5417 29.4496 104.213 43.1204C117.883 56.7913 128.728 73.021 136.126 90.8828Z" fill="#FCB424"/>
<path fill-rule="evenodd" clip-rule="evenodd" d="M73.7218 166.946C79.2751 163.74 85.0437 160.893 90.9935 158.429C108.855 151.03 127.999 147.222 147.333 147.222L147.333 294.445H73.7218V166.946Z" fill="#EA4B8B"/>
<path fill-rule="evenodd" clip-rule="evenodd" d="M73.7218 314.169C84.8402 320.588 95.0954 328.448 104.213 337.565C117.883 351.236 128.728 367.466 136.126 385.327C143.525 403.189 147.333 422.334 147.333 441.667H73.7218V314.169Z" fill="#854BCF"/>
<path fill-rule="evenodd" clip-rule="evenodd" d="M73.7218 461.391C79.2751 458.185 85.0437 455.338 90.9935 452.874C108.855 445.475 127.999 441.667 147.333 441.667L147.333 588.889H73.7218V461.391Z" fill="#63C5EA"/>
<path fill-rule="evenodd" clip-rule="evenodd" d="M73.7218 608.613C84.8402 615.033 95.0954 622.893 104.213 632.01C117.883 645.681 128.728 661.91 136.126 679.772C143.525 697.634 147.333 716.778 147.333 736.112H73.7218V608.613Z" fill="#FCB424"/>
<path fill-rule="evenodd" clip-rule="evenodd" d="M73.7218 903.058C84.8402 909.477 95.0954 917.337 104.213 926.455C117.883 940.125 128.728 956.355 136.126 974.217C143.525 992.079 147.333 1011.22 147.333 1030.56H0.110657L0.110641 956.945H73.7218V903.058Z" fill="#854BCF"/>
<path d="M148 883C148 863.696 151.802 844.58 159.19 826.746C166.577 808.911 177.405 792.706 191.055 779.055C204.706 765.405 220.911 754.577 238.746 747.19C256.58 739.802 275.696 736 295 736L295 883H148Z" fill="#854BCF"/>
<path d="M441 1031C441 1011.7 437.198 992.58 429.81 974.746C422.423 956.911 411.595 940.706 397.945 927.055C384.294 913.405 368.089 902.577 350.254 895.19C332.42 887.802 313.304 884 294 884L294 1031H441Z" fill="#FCB424"/>
<path d="M295 1031C295 1011.7 291.185 992.58 283.772 974.746C276.36 956.911 265.495 940.706 251.798 927.055C238.102 913.405 221.841 902.577 203.946 895.19C186.05 887.802 166.87 884 147.5 884L147.5 1031H295Z" fill="#63C5EA"/>
<path d="M295 736.5C295 717.13 291.185 697.95 283.772 680.054C276.36 662.159 265.495 645.898 251.798 632.202C238.102 618.505 221.841 607.64 203.946 600.228C186.05 592.815 166.87 589 147.5 589L147.5 736.5H295Z" fill="#EA4B8B"/>
<path d="M148 588.5C148 569.13 151.802 549.95 159.19 532.054C166.577 514.159 177.405 497.898 191.055 484.202C204.706 470.505 220.911 459.64 238.746 452.228C256.58 444.815 275.696 441 295 441L295 588.5H148Z" fill="#FCB424"/>
<path d="M295 442C295 422.696 291.185 403.58 283.772 385.746C276.36 367.911 265.495 351.706 251.798 338.055C238.102 324.405 221.841 313.577 203.946 306.19C186.05 298.802 166.87 295 147.5 295L147.5 442H295Z" fill="#63C5EA"/>
<path d="M148 294C148 274.696 151.802 255.58 159.19 237.746C166.577 219.911 177.405 203.706 191.055 190.055C204.706 176.405 220.911 165.577 238.746 158.19C256.58 150.802 275.696 147 295 147L295 294H148Z" fill="#854BCF"/>
<path d="M295 147.5C295 128.13 291.185 108.95 283.772 91.0542C276.36 73.1587 265.495 56.8984 251.798 43.2017C238.102 29.5051 221.841 18.6403 203.946 11.2278C186.05 3.8152 166.87 -8.46688e-07 147.5 0L147.5 147.5H295Z" fill="#EA4B8B"/>
<path fill-rule="evenodd" clip-rule="evenodd" d="M73.7218 755.836C79.2751 752.63 85.0437 749.783 90.9935 747.318C108.855 739.92 127.999 736.112 147.333 736.112L147.333 883.334H73.7218V755.836Z" fill="#EA4B8B"/>
</svg>
