<svg width="498" height="871" viewBox="0 0 498 871" fill="none" xmlns="http://www.w3.org/2000/svg">
<path d="M249.423 746.577C249.423 730.255 252.638 714.093 258.884 699.014C265.13 683.935 274.285 670.233 285.826 658.692C297.367 647.151 311.069 637.996 326.148 631.749C341.228 625.503 357.39 622.289 373.711 622.289L373.711 746.577H249.423Z" fill="#63C5EA"/>
<path d="M372.866 622.711C372.866 606.334 369.651 590.117 363.405 574.986C357.159 559.856 348.004 546.108 336.463 534.527C324.921 522.947 311.22 513.76 296.14 507.493C281.061 501.226 264.899 498 248.577 498L248.577 622.711H372.866Z" fill="#854BCF"/>
<path d="M249.423 497.577C249.423 481.2 252.638 464.983 258.884 449.852C265.13 434.722 274.285 420.973 285.826 409.393C297.367 397.812 311.069 388.626 326.148 382.359C341.228 376.092 357.39 372.866 373.711 372.866L373.711 497.577H249.423Z" fill="#EA4B8B"/>
<path d="M372.866 373.711C372.866 357.39 369.651 341.228 363.405 326.148C357.159 311.069 348.004 297.367 336.463 285.826C324.921 274.285 311.22 265.13 296.14 258.884C281.061 252.638 264.899 249.423 248.577 249.423L248.577 373.711H372.866Z" fill="#FCB424"/>
<path d="M249.423 248.577C249.423 232.255 252.638 216.093 258.884 201.014C265.13 185.935 274.285 172.233 285.826 160.692C297.367 149.151 311.069 139.996 326.148 133.749C341.228 127.503 357.39 124.289 373.711 124.289L373.711 248.577H249.423Z" fill="#63C5EA"/>
<path fill-rule="evenodd" clip-rule="evenodd" d="M62.3318 141.153C67.0271 138.442 71.9044 136.035 76.9349 133.952C92.0371 127.696 108.224 124.477 124.57 124.477L124.57 248.953H62.3318V141.153Z" fill="#EA4B8B"/>
<path fill-rule="evenodd" clip-rule="evenodd" d="M62.3322 265.63C71.7327 271.057 80.4034 277.703 88.1119 285.412C99.6707 296.97 108.84 310.693 115.095 325.795C121.351 340.897 124.57 357.083 124.57 373.43H62.3322V265.63ZM0.0938644 373.43H0.093689L0.0936813 248.953C0.0937424 248.953 0.0938034 248.953 0.0938644 248.953V373.43Z" fill="#854BCF"/>
<path fill-rule="evenodd" clip-rule="evenodd" d="M62.3318 390.106C67.0271 387.396 71.9044 384.989 76.9349 382.905C92.0371 376.649 108.224 373.43 124.57 373.43L124.57 497.906H62.3318V390.106Z" fill="#63C5EA"/>
<path fill-rule="evenodd" clip-rule="evenodd" d="M62.3322 514.583C71.7327 520.01 80.4034 526.656 88.1119 534.365C99.6707 545.923 108.84 559.646 115.095 574.748C121.351 589.85 124.57 606.036 124.57 622.383H62.3322V514.583ZM0.0938644 622.383H0.093689L0.0936813 497.906C0.0937424 497.906 0.0938034 497.906 0.0938644 497.906V622.383Z" fill="#FCB424"/>
<path d="M125.134 746.577C125.134 730.255 128.349 714.093 134.595 699.014C140.841 683.935 149.996 670.233 161.537 658.692C173.079 647.151 186.78 637.996 201.86 631.749C216.939 625.503 233.101 622.289 249.423 622.289L249.423 746.577H125.134Z" fill="#854BCF"/>
<path d="M249.423 622.711C249.423 606.334 246.197 590.117 239.93 574.986C233.662 559.856 224.476 546.108 212.896 534.527C201.315 522.947 187.567 513.76 172.436 507.493C157.306 501.226 141.089 498 124.711 498L124.711 622.711H249.423Z" fill="#EA4B8B"/>
<path d="M125.134 497.577C125.134 481.2 128.349 464.983 134.595 449.852C140.841 434.722 149.996 420.973 161.537 409.393C173.079 397.812 186.78 388.626 201.86 382.359C216.939 376.092 233.101 372.866 249.423 372.866L249.423 497.577H125.134Z" fill="#FCB424"/>
<path d="M249.423 373.711C249.423 357.39 246.197 341.228 239.93 326.148C233.662 311.069 224.476 297.367 212.896 285.826C201.315 274.285 187.567 265.13 172.436 258.884C157.306 252.638 141.089 249.423 124.711 249.423L124.711 373.711H249.423Z" fill="#63C5EA"/>
<path d="M125.134 248.577C125.134 232.255 128.349 216.093 134.595 201.014C140.841 185.935 149.996 172.233 161.537 160.692C173.079 149.151 186.78 139.996 201.86 133.749C216.939 127.503 233.101 124.289 249.423 124.289L249.423 248.577H125.134Z" fill="#854BCF"/>
<path d="M249.423 124.711C249.423 108.334 246.197 92.1171 239.93 76.9864C233.662 61.8557 224.476 48.1076 212.896 36.5271C201.315 24.9466 187.567 15.7604 172.436 9.49309C157.306 3.22575 141.089 -7.15876e-07 124.711 0L124.711 124.711H249.423Z" fill="#EA4B8B"/>
</svg>
