<svg width="204" height="200" viewBox="0 0 204 200" fill="none" xmlns="http://www.w3.org/2000/svg">
<path d="M50.0204 45.0871C45.5821 52.1899 42.5826 60.0951 41.1932 68.3514C39.8038 76.6077 40.0518 85.0533 41.9229 93.2061C43.794 101.359 47.2517 109.059 52.0984 115.867C56.9452 122.675 63.0862 128.458 70.1707 132.885L86.3936 106.923C82.7096 104.621 79.5163 101.614 76.996 98.0738C74.4757 94.5336 72.6777 90.5295 71.7047 86.29C70.7317 82.0506 70.6028 77.6589 71.3252 73.3656C72.0477 69.0724 73.6075 64.9617 75.9154 61.2682L50.0204 45.0871Z" fill="#63C5EA"/>
<path d="M137.766 24.7106C130.681 20.2837 122.792 17.2991 114.548 15.9272C106.305 14.5554 97.8678 14.8232 89.7199 16.7153C81.572 18.6075 73.8724 22.0869 67.0607 26.9549C60.2491 31.823 54.4588 37.9843 50.0204 45.0871L75.9154 61.2682C78.2234 57.5747 81.2343 54.3708 84.7764 51.8395C88.3184 49.3081 92.3222 47.4988 96.5591 46.5149C100.796 45.531 105.183 45.3917 109.47 46.1051C113.757 46.8184 117.859 48.3704 121.543 50.6724L137.766 24.7106Z" fill="#854BCF"/>
<path d="M133.396 149.274C137.834 142.171 140.834 134.266 142.223 126.009C143.613 117.753 143.365 109.307 141.493 101.155C139.622 93.0019 136.165 85.3016 131.318 78.4935C126.471 71.6854 120.33 65.9028 113.246 61.4759L97.0228 87.4377C100.707 89.7397 103.9 92.7467 106.42 96.2869C108.941 99.8271 110.739 103.831 111.712 108.071C112.685 112.31 112.814 116.702 112.091 120.995C111.369 125.288 109.809 129.399 107.501 133.093L133.396 149.274Z" fill="#FCB424"/>
<path d="M45.6504 169.65C52.735 174.077 60.6243 177.062 68.8681 178.433C77.1118 179.805 85.5485 179.537 93.6964 177.645C101.844 175.753 109.544 172.274 116.356 167.406C123.167 162.538 128.958 156.376 133.396 149.274L107.501 133.092C105.193 136.786 102.182 139.99 98.6399 142.521C95.0979 145.053 91.0941 146.862 86.8572 147.846C82.6203 148.83 78.2332 148.969 73.9464 148.256C69.6597 147.542 65.5572 145.99 61.8733 143.688L45.6504 169.65Z" fill="#EA4B8B"/>
</svg>
