<svg width="800" height="200" viewBox="0 0 800 200" fill="none" xmlns="http://www.w3.org/2000/svg">
<path d="M50.0204 45.0871C45.5821 52.1899 42.5826 60.0951 41.1932 68.3514C39.8038 76.6077 40.0518 85.0533 41.9229 93.2061C43.794 101.359 47.2517 109.059 52.0984 115.867C56.9452 122.675 63.0862 128.458 70.1707 132.885L86.3936 106.923C82.7096 104.621 79.5163 101.614 76.996 98.0738C74.4757 94.5336 72.6777 90.5295 71.7047 86.29C70.7317 82.0506 70.6028 77.6589 71.3252 73.3656C72.0477 69.0724 73.6075 64.9617 75.9154 61.2682L50.0204 45.0871Z" fill="#63C5EA"/>
<path d="M137.766 24.7106C130.681 20.2837 122.792 17.2991 114.548 15.9272C106.305 14.5554 97.8678 14.8232 89.7199 16.7153C81.572 18.6075 73.8724 22.0869 67.0607 26.9549C60.2491 31.823 54.4588 37.9843 50.0204 45.0871L75.9154 61.2682C78.2234 57.5747 81.2343 54.3708 84.7764 51.8395C88.3184 49.3081 92.3222 47.4988 96.5591 46.5149C100.796 45.531 105.183 45.3917 109.47 46.1051C113.757 46.8184 117.859 48.3704 121.543 50.6724L137.766 24.7106Z" fill="#854BCF"/>
<path d="M133.396 149.274C137.834 142.171 140.834 134.266 142.223 126.009C143.613 117.753 143.365 109.307 141.493 101.155C139.622 93.0019 136.165 85.3016 131.318 78.4935C126.471 71.6854 120.33 65.9028 113.246 61.4759L97.0228 87.4377C100.707 89.7397 103.9 92.7467 106.42 96.2869C108.941 99.8271 110.739 103.831 111.712 108.071C112.685 112.31 112.814 116.702 112.091 120.995C111.369 125.288 109.809 129.399 107.501 133.093L133.396 149.274Z" fill="#FCB424"/>
<path d="M45.6504 169.65C52.735 174.077 60.6243 177.062 68.8681 178.433C77.1118 179.805 85.5485 179.537 93.6964 177.645C101.844 175.753 109.544 172.274 116.356 167.406C123.167 162.538 128.958 156.376 133.396 149.274L107.501 133.092C105.193 136.786 102.182 139.99 98.6399 142.521C95.0979 145.053 91.0941 146.862 86.8572 147.846C82.6203 148.83 78.2332 148.969 73.9464 148.256C69.6597 147.542 65.5572 145.99 61.8733 143.688L45.6504 169.65Z" fill="#EA4B8B"/>
<path d="M221.36 141.32C215.04 141.32 209.16 140.24 203.72 138.08C198.36 135.84 193.64 132.72 189.56 128.72C185.56 124.72 182.44 120.08 180.2 114.8C177.96 109.44 176.84 103.68 176.84 97.52C176.84 91.36 177.96 85.64 180.2 80.36C182.44 75 185.56 70.36 189.56 66.44C193.56 62.52 198.24 59.48 203.6 57.32C209.04 55.08 214.92 53.96 221.24 53.96C227.96 53.96 233.92 55.04 239.12 57.2C244.4 59.36 249 62.32 252.92 66.08L240.32 78.8C238.08 76.4 235.36 74.52 232.16 73.16C229.04 71.8 225.4 71.12 221.24 71.12C217.56 71.12 214.16 71.76 211.04 73.04C208 74.24 205.36 76 203.12 78.32C200.96 80.64 199.24 83.44 197.96 86.72C196.76 90 196.16 93.6 196.16 97.52C196.16 101.52 196.76 105.16 197.96 108.44C199.24 111.72 200.96 114.52 203.12 116.84C205.36 119.16 208 120.96 211.04 122.24C214.16 123.52 217.56 124.16 221.24 124.16C225.56 124.16 229.32 123.48 232.52 122.12C235.72 120.76 238.48 118.88 240.8 116.48L253.52 129.2C249.44 132.96 244.76 135.92 239.48 138.08C234.28 140.24 228.24 141.32 221.36 141.32Z" fill="black" fill-opacity="0.9"/>
<path d="M288.888 141.32C282.888 141.32 277.448 140 272.568 137.36C267.768 134.64 263.968 130.96 261.168 126.32C258.368 121.68 256.968 116.48 256.968 110.72C256.968 104.96 258.368 99.8 261.168 95.24C263.968 90.68 267.768 87.08 272.568 84.44C277.368 81.72 282.808 80.36 288.888 80.36C294.968 80.36 300.408 81.68 305.208 84.32C310.008 86.96 313.808 90.6 316.608 95.24C319.408 99.8 320.808 104.96 320.808 110.72C320.808 116.48 319.408 121.68 316.608 126.32C313.808 130.96 310.008 134.64 305.208 137.36C300.408 140 294.968 141.32 288.888 141.32ZM288.888 124.64C291.528 124.64 293.848 124.08 295.848 122.96C297.848 121.76 299.368 120.12 300.408 118.04C301.528 115.88 302.088 113.44 302.088 110.72C302.088 108 301.528 105.64 300.408 103.64C299.288 101.56 297.728 99.96 295.728 98.84C293.808 97.64 291.528 97.04 288.888 97.04C286.328 97.04 284.048 97.64 282.048 98.84C280.048 99.96 278.488 101.56 277.368 103.64C276.248 105.72 275.688 108.12 275.688 110.84C275.688 113.48 276.248 115.88 277.368 118.04C278.488 120.12 280.048 121.76 282.048 122.96C284.048 124.08 286.328 124.64 288.888 124.64Z" fill="black" fill-opacity="0.9"/>
<path d="M354.789 141.2C349.269 141.2 344.349 139.88 340.029 137.24C335.789 134.6 332.429 131 329.949 126.44C327.549 121.88 326.349 116.68 326.349 110.84C326.349 105 327.549 99.8 329.949 95.24C332.429 90.68 335.789 87.08 340.029 84.44C344.349 81.8 349.269 80.48 354.789 80.48C358.789 80.48 362.389 81.24 365.589 82.76C368.869 84.28 371.549 86.4 373.629 89.12C375.789 91.76 376.989 94.8 377.229 98.24V122.84C376.989 126.28 375.829 129.4 373.749 132.2C371.669 134.92 368.989 137.12 365.709 138.8C362.429 140.4 358.789 141.2 354.789 141.2ZM358.029 124.64C360.669 124.64 362.949 124.08 364.869 122.96C366.789 121.76 368.309 120.12 369.429 118.04C370.549 115.96 371.109 113.56 371.109 110.84C371.109 108.12 370.549 105.76 369.429 103.76C368.389 101.68 366.869 100.04 364.869 98.84C362.949 97.64 360.709 97.04 358.149 97.04C355.589 97.04 353.309 97.64 351.309 98.84C349.389 100.04 347.829 101.68 346.629 103.76C345.509 105.84 344.949 108.2 344.949 110.84C344.949 113.48 345.509 115.84 346.629 117.92C347.749 120 349.309 121.64 351.309 122.84C353.309 124.04 355.549 124.64 358.029 124.64ZM388.389 140H370.389V124.28L373.149 110.12L370.029 95.96V52.88H388.389V140Z" fill="black" fill-opacity="0.9"/>
<path d="M430.116 141.32C423.796 141.32 418.156 140.04 413.196 137.48C408.316 134.84 404.476 131.2 401.676 126.56C398.876 121.92 397.476 116.68 397.476 110.84C397.476 105 398.836 99.8 401.556 95.24C404.356 90.6 408.116 86.96 412.836 84.32C417.556 81.68 422.876 80.36 428.796 80.36C434.556 80.36 439.636 81.6 444.036 84.08C448.436 86.56 451.876 90 454.356 94.4C456.916 98.8 458.196 103.84 458.196 109.52C458.196 110.56 458.116 111.68 457.956 112.88C457.876 114 457.676 115.32 457.356 116.84L407.076 116.96V104.36L449.556 104.24L441.636 109.52C441.556 106.16 441.036 103.4 440.076 101.24C439.116 99 437.676 97.32 435.756 96.2C433.916 95 431.636 94.4 428.916 94.4C426.036 94.4 423.516 95.08 421.356 96.44C419.276 97.72 417.636 99.56 416.436 101.96C415.316 104.36 414.756 107.28 414.756 110.72C414.756 114.16 415.356 117.12 416.556 119.6C417.836 122 419.596 123.88 421.836 125.24C424.156 126.52 426.876 127.16 429.996 127.16C432.876 127.16 435.476 126.68 437.796 125.72C440.116 124.68 442.156 123.16 443.916 121.16L453.996 131.24C451.116 134.6 447.636 137.12 443.556 138.8C439.476 140.48 434.996 141.32 430.116 141.32Z" fill="black" fill-opacity="0.9"/>
<path d="M496.36 144.2C489.96 144.2 484.44 143 479.8 140.6C475.16 138.12 471.08 134.68 467.56 130.28L473.68 124.28C476.48 128.2 479.72 131.12 483.4 133.04C487.16 134.96 491.6 135.92 496.72 135.92C502 135.92 506.28 134.72 509.56 132.32C512.84 129.92 514.48 126.6 514.48 122.36C514.48 119.08 513.72 116.4 512.2 114.32C510.68 112.16 508.68 110.44 506.2 109.16C503.8 107.8 501.12 106.6 498.16 105.56C495.2 104.52 492.24 103.44 489.28 102.32C486.4 101.12 483.72 99.64 481.24 97.88C478.76 96.12 476.76 93.88 475.24 91.16C473.8 88.44 473.08 84.96 473.08 80.72C473.08 76.24 474.16 72.4 476.32 69.2C478.48 66 481.44 63.56 485.2 61.88C488.96 60.12 493.24 59.24 498.04 59.24C503.4 59.24 508.16 60.28 512.32 62.36C516.56 64.44 520.08 67.24 522.88 70.76L516.88 76.76C514.32 73.72 511.52 71.4 508.48 69.8C505.44 68.2 501.88 67.4 497.8 67.4C493 67.4 489.16 68.52 486.28 70.76C483.4 73 481.96 76.12 481.96 80.12C481.96 83.24 482.68 85.76 484.12 87.68C485.64 89.6 487.64 91.2 490.12 92.48C492.6 93.76 495.28 94.92 498.16 95.96C501.12 96.92 504.08 98 507.04 99.2C510 100.4 512.68 101.92 515.08 103.76C517.56 105.6 519.56 107.96 521.08 110.84C522.6 113.64 523.36 117.24 523.36 121.64C523.36 128.76 520.92 134.32 516.04 138.32C511.24 142.24 504.68 144.2 496.36 144.2Z" fill="#0D0D0D" fill-opacity="0.88"/>
<path d="M562.471 144.2C557.031 144.2 552.071 142.88 547.591 140.24C543.191 137.6 539.671 134.04 537.031 129.56C534.471 125.08 533.191 120.08 533.191 114.56C533.191 109.12 534.471 104.2 537.031 99.8C539.671 95.4 543.191 91.92 547.591 89.36C552.071 86.72 557.031 85.4 562.471 85.4C567.991 85.4 572.951 86.68 577.351 89.24C581.751 91.8 585.231 95.32 587.791 99.8C590.431 104.2 591.751 109.12 591.751 114.56C591.751 120.16 590.431 125.2 587.791 129.68C585.231 134.08 581.751 137.6 577.351 140.24C572.951 142.88 567.991 144.2 562.471 144.2ZM562.471 136.04C566.471 136.04 569.991 135.12 573.031 133.28C576.151 131.44 578.591 128.88 580.351 125.6C582.191 122.32 583.111 118.64 583.111 114.56C583.111 110.48 582.191 106.88 580.351 103.76C578.591 100.56 576.151 98.04 573.031 96.2C569.991 94.36 566.471 93.44 562.471 93.44C558.551 93.44 555.031 94.36 551.911 96.2C548.791 98.04 546.351 100.56 544.591 103.76C542.831 106.88 541.951 110.48 541.951 114.56C541.951 118.72 542.831 122.44 544.591 125.72C546.351 128.92 548.791 131.44 551.911 133.28C555.031 135.12 558.551 136.04 562.471 136.04Z" fill="#0D0D0D" fill-opacity="0.88"/>
<path d="M646.154 143V109.88C646.154 104.92 644.674 100.92 641.714 97.88C638.834 94.76 634.994 93.2 630.194 93.2C626.914 93.2 624.034 93.92 621.554 95.36C619.074 96.8 617.114 98.76 615.674 101.24C614.234 103.72 613.514 106.56 613.514 109.76L609.674 107.6C609.674 103.36 610.674 99.56 612.674 96.2C614.674 92.84 617.354 90.2 620.714 88.28C624.154 86.36 628.074 85.4 632.474 85.4C636.794 85.4 640.634 86.4 643.994 88.4C647.354 90.32 649.954 93 651.794 96.44C653.714 99.88 654.674 103.88 654.674 108.44V143H646.154ZM605.114 143V58.04H613.514V143H605.114Z" fill="#0D0D0D" fill-opacity="0.88"/>
<path d="M709.627 144.2C703.787 144.2 698.347 143.12 693.307 140.96C688.347 138.72 683.987 135.68 680.227 131.84C676.467 127.92 673.507 123.4 671.347 118.28C669.267 113.08 668.227 107.52 668.227 101.6C668.227 95.6 669.267 90.04 671.347 84.92C673.427 79.8 676.347 75.32 680.107 71.48C683.867 67.64 688.227 64.64 693.187 62.48C698.147 60.32 703.547 59.24 709.387 59.24C715.227 59.24 720.627 60.32 725.587 62.48C730.627 64.64 735.027 67.64 738.787 71.48C742.547 75.32 745.467 79.84 747.547 85.04C749.627 90.16 750.667 95.72 750.667 101.72C750.667 107.64 749.627 113.2 747.547 118.4C745.467 123.52 742.547 128 738.787 131.84C735.107 135.68 730.787 138.72 725.827 140.96C720.867 143.12 715.467 144.2 709.627 144.2ZM709.387 135.68C715.627 135.68 721.147 134.2 725.947 131.24C730.827 128.28 734.627 124.24 737.347 119.12C740.147 114 741.547 108.16 741.547 101.6C741.547 96.72 740.747 92.24 739.147 88.16C737.547 84 735.307 80.4 732.427 77.36C729.547 74.24 726.147 71.84 722.227 70.16C718.387 68.48 714.107 67.64 709.387 67.64C703.227 67.64 697.707 69.12 692.827 72.08C688.027 74.96 684.227 78.96 681.427 84.08C678.707 89.2 677.347 95.04 677.347 101.6C677.347 106.48 678.147 111 679.747 115.16C681.347 119.32 683.587 122.96 686.467 126.08C689.347 129.12 692.747 131.48 696.667 133.16C700.587 134.84 704.827 135.68 709.387 135.68Z" fill="#0D0D0D" fill-opacity="0.88"/>
<path d="M774.612 144.2C769.972 144.2 765.892 143.32 762.372 141.56C758.932 139.72 755.972 137.24 753.492 134.12L759.732 128.36C761.492 130.76 763.572 132.6 765.972 133.88C768.372 135.08 771.172 135.68 774.372 135.68C777.252 135.68 779.892 135.08 782.292 133.88C784.692 132.6 786.612 130.64 788.052 128C789.492 125.36 790.212 122.04 790.212 118.04V60.44H799.092V117.92C799.092 123.44 797.972 128.16 795.732 132.08C793.572 136 790.612 139 786.852 141.08C783.172 143.16 779.092 144.2 774.612 144.2Z" fill="#0D0D0D" fill-opacity="0.88"/>
</svg>
