<svg width="1976" height="1297" viewBox="0 0 1976 1297" fill="none" xmlns="http://www.w3.org/2000/svg">
<path d="M1682 1002C1682 982.696 1685.8 963.58 1693.19 945.746C1700.58 927.911 1711.41 911.706 1725.06 898.055C1738.71 884.405 1754.91 873.577 1772.75 866.19C1790.58 858.802 1809.7 855 1829 855L1829 1002H1682Z" fill="#63C5EA"/>
<path d="M1828 855.5C1828 836.13 1824.2 816.95 1816.81 799.054C1809.42 781.159 1798.59 764.898 1784.94 751.202C1771.29 737.505 1755.09 726.64 1737.25 719.228C1719.42 711.815 1700.3 708 1681 708L1681 855.5H1828Z" fill="#854BCF"/>
<path d="M1682 707.5C1682 688.13 1685.8 668.95 1693.19 651.054C1700.58 633.159 1711.41 616.898 1725.06 603.202C1738.71 589.505 1754.91 578.64 1772.75 571.228C1790.58 563.815 1809.7 560 1829 560L1829 707.5H1682Z" fill="#EA4B8B"/>
<path d="M1828 561C1828 541.696 1824.2 522.58 1816.81 504.746C1809.42 486.911 1798.59 470.706 1784.94 457.055C1771.29 443.405 1755.09 432.577 1737.25 425.19C1719.42 417.802 1700.3 414 1681 414L1681 561H1828Z" fill="#FCB424"/>
<path d="M1682 413C1682 393.696 1685.8 374.58 1693.19 356.746C1700.58 338.911 1711.41 322.706 1725.06 309.055C1738.71 295.405 1754.91 284.577 1772.75 277.19C1790.58 269.802 1809.7 266 1829 266L1829 413H1682Z" fill="#63C5EA"/>
<path d="M1828 266.5C1828 247.13 1824.2 227.95 1816.81 210.054C1809.42 192.159 1798.59 175.898 1784.94 162.202C1771.29 148.505 1755.09 137.64 1737.25 130.228C1719.42 122.815 1700.3 119 1681 119L1681 266.5H1828Z" fill="#854BCF"/>
<path fill-rule="evenodd" clip-rule="evenodd" d="M1523.13 209.883C1530.52 227.745 1534.33 246.889 1534.33 266.222H1460.72V192.611H1387.11L1387.11 119C1406.44 119 1425.59 122.808 1443.45 130.207C1461.31 137.605 1477.54 148.45 1491.21 162.12C1504.88 175.791 1515.73 192.021 1523.13 209.883Z" fill="#FCB424"/>
<path fill-rule="evenodd" clip-rule="evenodd" d="M1460.72 285.946C1466.28 282.74 1472.04 279.893 1477.99 277.429C1495.86 270.03 1515 266.222 1534.33 266.222V413.445H1460.72V285.946Z" fill="#EA4B8B"/>
<path fill-rule="evenodd" clip-rule="evenodd" d="M1460.72 433.169C1471.84 439.588 1482.1 447.448 1491.21 456.565C1504.88 470.236 1515.73 486.466 1523.13 504.327C1530.52 522.189 1534.33 541.334 1534.33 560.667H1460.72V433.169Z" fill="#854BCF"/>
<path fill-rule="evenodd" clip-rule="evenodd" d="M1460.72 580.391C1466.28 577.185 1472.04 574.338 1477.99 571.874C1495.86 564.475 1515 560.667 1534.33 560.667V707.889H1460.72V580.391Z" fill="#63C5EA"/>
<path fill-rule="evenodd" clip-rule="evenodd" d="M1460.72 727.613C1471.84 734.033 1482.1 741.893 1491.21 751.01C1504.88 764.681 1515.73 780.91 1523.13 798.772C1530.52 816.634 1534.33 835.778 1534.33 855.112H1460.72V727.613Z" fill="#FCB424"/>
<path fill-rule="evenodd" clip-rule="evenodd" d="M1460.72 1022.06C1471.84 1028.48 1482.1 1036.34 1491.21 1045.45C1504.88 1059.13 1515.73 1075.36 1523.13 1093.22C1530.52 1111.08 1534.33 1130.22 1534.33 1149.56H1387.11L1387.11 1075.95H1460.72V1022.06Z" fill="#854BCF"/>
<path d="M1535 1002C1535 982.696 1538.8 963.58 1546.19 945.746C1553.58 927.911 1564.41 911.706 1578.06 898.055C1591.71 884.405 1607.91 873.577 1625.75 866.19C1643.58 858.802 1662.7 855 1682 855L1682 1002H1535Z" fill="#854BCF"/>
<path d="M1828 1150C1828 1130.7 1824.2 1111.58 1816.81 1093.75C1809.42 1075.91 1798.59 1059.71 1784.94 1046.06C1771.29 1032.41 1755.09 1021.58 1737.25 1014.19C1719.42 1006.8 1700.3 1003 1681 1003L1681 1150H1828Z" fill="#FCB424"/>
<path d="M1682 1150C1682 1130.7 1678.18 1111.58 1670.77 1093.75C1663.36 1075.91 1652.49 1059.71 1638.8 1046.06C1625.1 1032.41 1608.84 1021.58 1590.95 1014.19C1573.05 1006.8 1553.87 1003 1534.5 1003L1534.5 1150H1682Z" fill="#63C5EA"/>
<path d="M1682 855.5C1682 836.13 1678.18 816.95 1670.77 799.054C1663.36 781.159 1652.49 764.898 1638.8 751.202C1625.1 737.505 1608.84 726.64 1590.95 719.228C1573.05 711.815 1553.87 708 1534.5 708L1534.5 855.5H1682Z" fill="#EA4B8B"/>
<path d="M1535 707.5C1535 688.13 1538.8 668.95 1546.19 651.054C1553.58 633.159 1564.41 616.898 1578.06 603.202C1591.71 589.505 1607.91 578.64 1625.75 571.228C1643.58 563.815 1662.7 560 1682 560L1682 707.5H1535Z" fill="#FCB424"/>
<path d="M1682 561C1682 541.696 1678.18 522.58 1670.77 504.746C1663.36 486.911 1652.49 470.706 1638.8 457.055C1625.1 443.405 1608.84 432.577 1590.95 425.19C1573.05 417.802 1553.87 414 1534.5 414L1534.5 561H1682Z" fill="#63C5EA"/>
<path d="M1535 413C1535 393.696 1538.8 374.58 1546.19 356.746C1553.58 338.911 1564.41 322.706 1578.06 309.055C1591.71 295.405 1607.91 284.577 1625.75 277.19C1643.58 269.802 1662.7 266 1682 266L1682 413H1535Z" fill="#854BCF"/>
<path d="M1682 266.5C1682 247.13 1678.18 227.95 1670.77 210.054C1663.36 192.159 1652.49 175.898 1638.8 162.202C1625.1 148.505 1608.84 137.64 1590.95 130.228C1573.05 122.815 1553.87 119 1534.5 119L1534.5 266.5H1682Z" fill="#EA4B8B"/>
<path fill-rule="evenodd" clip-rule="evenodd" d="M1460.72 874.836C1466.28 871.63 1472.04 868.783 1477.99 866.318C1495.86 858.92 1515 855.112 1534.33 855.112V1002.33H1460.72V874.836Z" fill="#EA4B8B"/>
<path d="M294 295C294 314.304 290.198 333.42 282.81 351.254C275.423 369.089 264.595 385.294 250.945 398.945C237.294 412.595 221.089 423.423 203.254 430.81C185.42 438.198 166.304 442 147 442L147 295H294Z" fill="#63C5EA"/>
<path d="M148 441.5C148 460.87 151.802 480.05 159.19 497.946C166.577 515.841 177.405 532.102 191.055 545.798C204.706 559.495 220.911 570.36 238.746 577.772C256.58 585.185 275.696 589 295 589L295 441.5H148Z" fill="#854BCF"/>
<path d="M294 589.5C294 608.87 290.198 628.05 282.81 645.946C275.423 663.841 264.595 680.102 250.945 693.798C237.294 707.495 221.089 718.36 203.254 725.772C185.42 733.185 166.304 737 147 737L147 589.5H294Z" fill="#EA4B8B"/>
<path d="M148 736C148 755.304 151.802 774.42 159.19 792.254C166.577 810.089 177.405 826.294 191.055 839.945C204.706 853.595 220.911 864.423 238.746 871.81C256.58 879.198 275.696 883 295 883L295 736H148Z" fill="#FCB424"/>
<path d="M294 884C294 903.304 290.198 922.42 282.81 940.254C275.423 958.089 264.595 974.294 250.945 987.945C237.294 1001.59 221.089 1012.42 203.254 1019.81C185.42 1027.2 166.304 1031 147 1031L147 884H294Z" fill="#63C5EA"/>
<path d="M148 1030.5C148 1049.87 151.802 1069.05 159.19 1086.95C166.577 1104.84 177.405 1121.1 191.055 1134.8C204.706 1148.49 220.911 1159.36 238.746 1166.77C256.58 1174.18 275.696 1178 295 1178L295 1030.5H148Z" fill="#854BCF"/>
<path fill-rule="evenodd" clip-rule="evenodd" d="M452.874 1087.12C445.475 1069.26 441.667 1050.11 441.667 1030.78H515.278V1104.39H588.889L588.889 1178C569.556 1178 550.412 1174.19 532.55 1166.79C514.688 1159.39 498.458 1148.55 484.787 1134.88C471.117 1121.21 460.272 1104.98 452.874 1087.12Z" fill="#FCB424"/>
<path fill-rule="evenodd" clip-rule="evenodd" d="M515.278 1011.05C509.725 1014.26 503.956 1017.11 498.007 1019.57C480.145 1026.97 461.001 1030.78 441.667 1030.78L441.667 883.555H515.278V1011.05Z" fill="#EA4B8B"/>
<path fill-rule="evenodd" clip-rule="evenodd" d="M515.278 863.831C504.16 857.412 493.905 849.552 484.787 840.435C471.117 826.764 460.272 810.534 452.874 792.673C445.475 774.811 441.667 755.666 441.667 736.333H515.278V863.831Z" fill="#854BCF"/>
<path fill-rule="evenodd" clip-rule="evenodd" d="M515.278 716.609C509.725 719.815 503.956 722.662 498.007 725.126C480.145 732.525 461.001 736.333 441.667 736.333L441.667 589.111H515.278V716.609Z" fill="#63C5EA"/>
<path fill-rule="evenodd" clip-rule="evenodd" d="M515.278 569.387C504.16 562.967 493.905 555.107 484.787 545.99C471.117 532.319 460.272 516.09 452.874 498.228C445.475 480.366 441.667 461.222 441.667 441.888H515.278V569.387Z" fill="#FCB424"/>
<path fill-rule="evenodd" clip-rule="evenodd" d="M515.278 274.942C504.16 268.523 493.905 260.663 484.787 251.545C471.117 237.875 460.272 221.645 452.874 203.783C445.475 185.921 441.667 166.777 441.667 147.443H588.889L588.889 221.055L515.278 221.055V274.942Z" fill="#854BCF"/>
<path d="M441 295C441 314.304 437.198 333.42 429.81 351.254C422.423 369.089 411.595 385.294 397.945 398.945C384.294 412.595 368.089 423.423 350.254 430.81C332.42 438.198 313.304 442 294 442L294 295H441Z" fill="#854BCF"/>
<path d="M148 147C148 166.304 151.802 185.42 159.19 203.254C166.577 221.089 177.405 237.294 191.055 250.945C204.706 264.595 220.911 275.423 238.746 282.81C256.58 290.198 275.696 294 295 294L295 147H148Z" fill="#FCB424"/>
<path d="M294 147C294 166.304 297.815 185.42 305.228 203.254C312.64 221.089 323.505 237.294 337.202 250.945C350.898 264.595 367.159 275.423 385.054 282.81C402.95 290.198 422.13 294 441.5 294L441.5 147H294Z" fill="#63C5EA"/>
<path d="M294 441.5C294 460.87 297.815 480.05 305.228 497.946C312.64 515.841 323.505 532.102 337.202 545.798C350.898 559.495 367.159 570.36 385.054 577.772C402.95 585.185 422.13 589 441.5 589L441.5 441.5H294Z" fill="#EA4B8B"/>
<path d="M441 589.5C441 608.87 437.198 628.05 429.81 645.946C422.423 663.841 411.595 680.102 397.945 693.798C384.294 707.495 368.089 718.36 350.254 725.772C332.42 733.185 313.304 737 294 737L294 589.5H441Z" fill="#FCB424"/>
<path d="M294 736C294 755.304 297.815 774.42 305.228 792.254C312.64 810.089 323.505 826.294 337.202 839.945C350.898 853.595 367.159 864.423 385.054 871.81C402.95 879.198 422.13 883 441.5 883L441.5 736H294Z" fill="#63C5EA"/>
<path d="M441 884C441 903.304 437.198 922.42 429.81 940.254C422.423 958.089 411.595 974.294 397.945 987.945C384.294 1001.59 368.089 1012.42 350.254 1019.81C332.42 1027.2 313.304 1031 294 1031L294 884H441Z" fill="#854BCF"/>
<path d="M294 1030.5C294 1049.87 297.815 1069.05 305.228 1086.95C312.64 1104.84 323.505 1121.1 337.202 1134.8C350.898 1148.49 367.159 1159.36 385.054 1166.77C402.95 1174.18 422.13 1178 441.5 1178L441.5 1030.5H294Z" fill="#EA4B8B"/>
<path fill-rule="evenodd" clip-rule="evenodd" d="M515.278 422.164C509.725 425.37 503.956 428.217 498.007 430.682C480.145 438.08 461.001 441.888 441.667 441.888L441.667 294.666H515.278V422.164Z" fill="#EA4B8B"/>
</svg>
